<?xml version="1.0" encoding="UTF-8"?> <svg xmlns="http://www.w3.org/2000/svg" width="24" height="24" viewBox="0 0 24 24" fill="none"><path d="M12.082 0C18.0872 0.000285799 22.1639 4.61829 22.1641 9.59961C22.1641 11.5997 21.7277 13.3454 20.709 15.5273C14.7398 15.5273 13.6475 19.4905 13.3926 22.1455L13.2139 23.9668C13.2119 23.9858 13.1958 24 13.1768 24H10.9883C10.9692 24 10.9525 23.9858 10.9512 23.9668L10.7725 22.1455C10.5175 19.4905 9.42524 15.5273 3.45605 15.5273C2.43667 13.3453 2 11.5997 2 9.59961C2.00021 4.61769 6.07628 0.000387197 12.082 0ZM12.1465 4.12891C12.1194 4.07676 12.0445 4.07661 12.0176 4.12891H12.0166L10.543 7.01855C10.5377 7.02841 10.5278 7.0358 10.5166 7.03711L7.31445 7.54688C7.2563 7.5563 7.23354 7.62764 7.27539 7.66895L9.56738 9.96484C9.57518 9.97272 9.57911 9.98401 9.57715 9.99512L9.07227 13.2002C9.06334 13.2585 9.12333 13.3023 9.17578 13.2754L12.0654 11.8037C12.0753 11.7985 12.0878 11.7985 12.0977 11.8037L14.9873 13.2754C15.0397 13.3023 15.1006 13.2584 15.0918 13.2002L14.5859 9.99512C14.584 9.98406 14.588 9.97271 14.5957 9.96484L16.8877 7.66895C16.929 7.6276 16.9063 7.55617 16.8486 7.54688L13.6465 7.03711C13.6353 7.03514 13.6263 7.02841 13.6211 7.01855L12.1465 4.12891Z" fill="white"></path></svg> 